# xmcd
#
# Track frame offsets:
#	150
#	18145
#	38222
#	57527
#	74390
#	93765
#	111515
#	128640
#	149537
#	171865
#	186697
#	206375
#	223977
#	241357
#
# Disc length: 3454 seconds
#
# Revision: 0
# Processed by: cddbd v1.5.1PL2 Copyright (c) Steve Scherf et al.
# Submitted via: dBpowerAMP V4.0
#
DISCID=d80d7c0e
DTITLE=รวมฮิต - ดาวแดง1
DYEAR=1900
DGENRE=
TTITLE0=ล้างใจ-อนันต์
TTITLE1=รอยร้าว-อิทธิ
TTITLE2=ไม่ต่างกัน-พิสุทธิ์
TTITLE3=หนี-วงทู
TTITLE4=ขอแรง- อนันต์
TTITLE5=อย่าทนอีกเลย-
TTITLE6=เกิดมาเพื่อเธอ-วาสนา
TTITLE7=หลงตัวเอง-อนันต์
TTITLE8=เธอไม่เคยตาย-วงทู
TTITLE9=อรุณสวัสดิ์-พิสุทธิ์
TTITLE10=ใจประมาท-อริสมันต์
TTITLE11=อยากรู้ความจริง-ทัช
TTITLE12=ทิ้ง-อริสมันต์
TTITLE13=ปรับใจไม่ทัน-ศรราม
EXTD=
EXTT0=
EXTT1=
EXTT2=
EXTT3=
EXTT4=
EXTT5=
EXTT6=
EXTT7=
EXTT8=
EXTT9=
EXTT10=
EXTT11=
EXTT12=
EXTT13=
PLAYORDER=
